<svg width="1024" height="753" viewBox="0 0 1024 753" fill="none" xmlns="http://www.w3.org/2000/svg">
<g opacity="0.2" filter="url(#filter0_f_175_220)">
<ellipse cx="-44.5" cy="54" rx="670.5" ry="350" fill="#338AF3"/>
</g>
<g opacity="0.6">
<path d="M362.93 -10C364.356 -10 365.436 -9.39504 366.17 -8.18512C366.916 -6.9885 367.29 -5.24675 367.29 -2.95987C367.29 -0.672995 366.916 1.0754 366.17 2.28532C365.436 3.49524 364.356 4.1002 362.93 4.1002C361.517 4.1002 360.437 3.49524 359.69 2.28532C358.943 1.0754 358.57 -0.672995 358.57 -2.95987C358.57 -5.23346 358.943 -6.97521 359.69 -8.18512C360.437 -9.39504 361.517 -10 362.93 -10ZM359.99 -2.95987C359.99 -1.33778 360.137 -0.0680364 360.43 0.849374L364.87 -7.98569C364.403 -8.61059 363.756 -8.92304 362.93 -8.92304C362.01 -8.92304 361.29 -8.43109 360.77 -7.44721C360.25 -6.47661 359.99 -4.98083 359.99 -2.95987ZM362.93 3.00329C363.863 3.00329 364.59 2.518 365.11 1.5474C365.63 0.563515 365.89 -0.938911 365.89 -2.95987C365.89 -4.67503 365.723 -6.00461 365.39 -6.94861L360.95 1.96622C361.43 2.6576 362.09 3.00329 362.93 3.00329Z" fill="url(#paint0_linear_175_220)"/>
<path d="M364.13 25.6365H367.07V26.6936H359.45V25.6365H362.85V14.4282L359.61 16.3627L359.05 15.4653L363.05 12.9922H364.13V25.6365Z" fill="url(#paint1_linear_175_220)"/>
<path d="M362.93 35.5856C364.356 35.5856 365.436 36.1906 366.17 37.4005C366.916 38.5971 367.29 40.3389 367.29 42.6257C367.29 44.9126 366.916 46.661 366.17 47.8709C365.436 49.0808 364.356 49.6858 362.93 49.6858C361.517 49.6858 360.437 49.0808 359.69 47.8709C358.943 46.661 358.57 44.9126 358.57 42.6257C358.57 40.3522 358.943 38.6104 359.69 37.4005C360.437 36.1906 361.517 35.5856 362.93 35.5856ZM359.99 42.6257C359.99 44.2478 360.137 45.5176 360.43 46.435L364.87 37.5999C364.403 36.975 363.756 36.6626 362.93 36.6626C362.01 36.6626 361.29 37.1545 360.77 38.1384C360.25 39.109 359.99 40.6048 359.99 42.6257ZM362.93 48.5889C363.863 48.5889 364.59 48.1036 365.11 47.133C365.63 46.1491 365.89 44.6467 365.89 42.6257C365.89 40.9106 365.723 39.581 365.39 38.637L360.95 47.5518C361.43 48.2432 362.09 48.5889 362.93 48.5889Z" fill="url(#paint2_linear_175_220)"/>
<path d="M364.13 71.2221H367.07V72.2792H359.45V71.2221H362.85V60.0138L359.61 61.9483L359.05 61.0509L363.05 58.5778H364.13V71.2221Z" fill="url(#paint3_linear_175_220)"/>
<path d="M364.13 94.015H367.07V95.072H359.45V94.015H362.85V82.8066L359.61 84.7411L359.05 83.8437L363.05 81.3706H364.13V94.015Z" fill="url(#paint4_linear_175_220)"/>
<path d="M362.93 103.964C364.356 103.964 365.436 104.569 366.17 105.779C366.916 106.976 367.29 108.717 367.29 111.004C367.29 113.291 366.916 115.039 366.17 116.249C365.436 117.459 364.356 118.064 362.93 118.064C361.517 118.064 360.437 117.459 359.69 116.249C358.943 115.039 358.57 113.291 358.57 111.004C358.57 108.731 358.943 106.989 359.69 105.779C360.437 104.569 361.517 103.964 362.93 103.964ZM359.99 111.004C359.99 112.626 360.137 113.896 360.43 114.813L364.87 105.978C364.403 105.353 363.756 105.041 362.93 105.041C362.01 105.041 361.29 105.533 360.77 106.517C360.25 107.487 359.99 108.983 359.99 111.004ZM362.93 116.967C363.863 116.967 364.59 116.482 365.11 115.511C365.63 114.528 365.89 113.025 365.89 111.004C365.89 109.289 365.723 107.959 365.39 107.015L360.95 115.93C361.43 116.622 362.09 116.967 362.93 116.967Z" fill="url(#paint5_linear_175_220)"/>
<path d="M364.13 139.601H367.07V140.658H359.45V139.601H362.85V128.392L359.61 130.327L359.05 129.429L363.05 126.956H364.13V139.601Z" fill="url(#paint6_linear_175_220)"/>
<path d="M362.93 149.55C364.356 149.55 365.436 150.155 366.17 151.365C366.916 152.561 367.29 154.303 367.29 156.59C367.29 158.877 366.916 160.625 366.17 161.835C365.436 163.045 364.356 163.65 362.93 163.65C361.517 163.65 360.437 163.045 359.69 161.835C358.943 160.625 358.57 158.877 358.57 156.59C358.57 154.316 358.943 152.574 359.69 151.365C360.437 150.155 361.517 149.55 362.93 149.55ZM359.99 156.59C359.99 158.212 360.137 159.482 360.43 160.399L364.87 151.564C364.403 150.939 363.756 150.627 362.93 150.627C362.01 150.627 361.29 151.119 360.77 152.102C360.25 153.073 359.99 154.569 359.99 156.59ZM362.93 162.553C363.863 162.553 364.59 162.068 365.11 161.097C365.63 160.113 365.89 158.611 365.89 156.59C365.89 154.875 365.723 153.545 365.39 152.601L360.95 161.516C361.43 162.207 362.09 162.553 362.93 162.553Z" fill="url(#paint7_linear_175_220)"/>
<path d="M362.93 172.342C364.356 172.342 365.436 172.947 366.17 174.157C366.916 175.354 367.29 177.096 367.29 179.383C367.29 181.669 366.916 183.418 366.17 184.628C365.436 185.838 364.356 186.443 362.93 186.443C361.517 186.443 360.437 185.838 359.69 184.628C358.943 183.418 358.57 181.669 358.57 179.383C358.57 177.109 358.943 175.367 359.69 174.157C360.437 172.947 361.517 172.342 362.93 172.342ZM359.99 179.383C359.99 181.005 360.137 182.274 360.43 183.192L364.87 174.357C364.403 173.732 363.756 173.419 362.93 173.419C362.01 173.419 361.29 173.911 360.77 174.895C360.25 175.866 359.99 177.362 359.99 179.383ZM362.93 185.346C363.863 185.346 364.59 184.86 365.11 183.89C365.63 182.906 365.89 181.404 365.89 179.383C365.89 177.667 365.723 176.338 365.39 175.394L360.95 184.309C361.43 185 362.09 185.346 362.93 185.346Z" fill="url(#paint8_linear_175_220)"/>
<path d="M364.13 207.979H367.07V209.036H359.45V207.979H362.85V196.771L359.61 198.705L359.05 197.808L363.05 195.335H364.13V207.979Z" fill="url(#paint9_linear_175_220)"/>
<path d="M362.93 217.928C364.356 217.928 365.436 218.533 366.17 219.743C366.916 220.94 367.29 222.681 367.29 224.968C367.29 227.255 366.916 229.003 366.17 230.213C365.436 231.423 364.356 232.028 362.93 232.028C361.517 232.028 360.437 231.423 359.69 230.213C358.943 229.003 358.57 227.255 358.57 224.968C358.57 222.695 358.943 220.953 359.69 219.743C360.437 218.533 361.517 217.928 362.93 217.928ZM359.99 224.968C359.99 226.59 360.137 227.86 360.43 228.777L364.87 219.942C364.403 219.317 363.756 219.005 362.93 219.005C362.01 219.005 361.29 219.497 360.77 220.481C360.25 221.451 359.99 222.947 359.99 224.968ZM362.93 230.931C363.863 230.931 364.59 230.446 365.11 229.475C365.63 228.492 365.89 226.989 365.89 224.968C365.89 223.253 365.723 221.923 365.39 220.979L360.95 229.894C361.43 230.586 362.09 230.931 362.93 230.931Z" fill="url(#paint10_linear_175_220)"/>
<path d="M364.13 253.565H367.07V254.622H359.45V253.565H362.85V242.356L359.61 244.291L359.05 243.393L363.05 240.92H364.13V253.565Z" fill="url(#paint11_linear_175_220)"/>
<path d="M364.13 276.357H367.07V277.414H359.45V276.357H362.85V265.149L359.61 267.084L359.05 266.186L363.05 263.713H364.13V276.357Z" fill="url(#paint12_linear_175_220)"/>
<path d="M400.07 35.5856C401.497 35.5856 402.577 36.1906 403.31 37.4005C404.057 38.5971 404.43 40.3389 404.43 42.6257C404.43 44.9126 404.057 46.661 403.31 47.8709C402.577 49.0808 401.497 49.6858 400.07 49.6858C398.657 49.6858 397.577 49.0808 396.83 47.8709C396.084 46.661 395.71 44.9126 395.71 42.6257C395.71 40.3522 396.084 38.6104 396.83 37.4005C397.577 36.1906 398.657 35.5856 400.07 35.5856ZM397.13 42.6257C397.13 44.2478 397.277 45.5176 397.57 46.435L402.01 37.5999C401.543 36.975 400.897 36.6626 400.07 36.6626C399.15 36.6626 398.43 37.1545 397.91 38.1384C397.39 39.109 397.13 40.6048 397.13 42.6257ZM400.07 48.5889C401.003 48.5889 401.73 48.1036 402.25 47.133C402.77 46.1491 403.03 44.6467 403.03 42.6257C403.03 40.9106 402.863 39.581 402.53 38.637L398.09 47.5518C398.57 48.2432 399.23 48.5889 400.07 48.5889Z" fill="url(#paint13_linear_175_220)"/>
<path d="M401.27 71.2221H404.21V72.2792H396.59V71.2221H399.99V60.0138L396.75 61.9483L396.19 61.0509L400.19 58.5778H401.27V71.2221Z" fill="url(#paint14_linear_175_220)"/>
<path d="M400.07 81.1712C401.497 81.1712 402.577 81.7762 403.31 82.9861C404.057 84.1827 404.43 85.9245 404.43 88.2113C404.43 90.4982 404.057 92.2466 403.31 93.4565C402.577 94.6664 401.497 95.2714 400.07 95.2714C398.657 95.2714 397.577 94.6664 396.83 93.4565C396.084 92.2466 395.71 90.4982 395.71 88.2113C395.71 85.9378 396.084 84.196 396.83 82.9861C397.577 81.7762 398.657 81.1712 400.07 81.1712ZM397.13 88.2113C397.13 89.8334 397.277 91.1032 397.57 92.0206L402.01 83.1855C401.543 82.5606 400.897 82.2482 400.07 82.2482C399.15 82.2482 398.43 82.7401 397.91 83.724C397.39 84.6946 397.13 86.1904 397.13 88.2113ZM400.07 94.1745C401.003 94.1745 401.73 93.6892 402.25 92.7186C402.77 91.7347 403.03 90.2323 403.03 88.2113C403.03 86.4962 402.863 85.1666 402.53 84.2226L398.09 93.1374C398.57 93.8288 399.23 94.1745 400.07 94.1745Z" fill="url(#paint15_linear_175_220)"/>
<path d="M400.07 103.964C401.497 103.964 402.577 104.569 403.31 105.779C404.057 106.976 404.43 108.717 404.43 111.004C404.43 113.291 404.057 115.039 403.31 116.249C402.577 117.459 401.497 118.064 400.07 118.064C398.657 118.064 397.577 117.459 396.83 116.249C396.084 115.039 395.71 113.291 395.71 111.004C395.71 108.731 396.084 106.989 396.83 105.779C397.577 104.569 398.657 103.964 400.07 103.964ZM397.13 111.004C397.13 112.626 397.277 113.896 397.57 114.813L402.01 105.978C401.543 105.353 400.897 105.041 400.07 105.041C399.15 105.041 398.43 105.533 397.91 106.517C397.39 107.487 397.13 108.983 397.13 111.004ZM400.07 116.967C401.003 116.967 401.73 116.482 402.25 115.511C402.77 114.528 403.03 113.025 403.03 111.004C403.03 109.289 402.863 107.959 402.53 107.015L398.09 115.93C398.57 116.622 399.23 116.967 400.07 116.967Z" fill="url(#paint16_linear_175_220)"/>
<path d="M401.27 139.601H404.21V140.658H396.59V139.601H399.99V128.392L396.75 130.327L396.19 129.429L400.19 126.956H401.27V139.601Z" fill="url(#paint17_linear_175_220)"/>
<path d="M400.07 149.55C401.497 149.55 402.577 150.155 403.31 151.365C404.057 152.561 404.43 154.303 404.43 156.59C404.43 158.877 404.057 160.625 403.31 161.835C402.577 163.045 401.497 163.65 400.07 163.65C398.657 163.65 397.577 163.045 396.83 161.835C396.084 160.625 395.71 158.877 395.71 156.59C395.71 154.316 396.084 152.574 396.83 151.365C397.577 150.155 398.657 149.55 400.07 149.55ZM397.13 156.59C397.13 158.212 397.277 159.482 397.57 160.399L402.01 151.564C401.543 150.939 400.897 150.627 400.07 150.627C399.15 150.627 398.43 151.119 397.91 152.102C397.39 153.073 397.13 154.569 397.13 156.59ZM400.07 162.553C401.003 162.553 401.73 162.068 402.25 161.097C402.77 160.113 403.03 158.611 403.03 156.59C403.03 154.875 402.863 153.545 402.53 152.601L398.09 161.516C398.57 162.207 399.23 162.553 400.07 162.553Z" fill="url(#paint18_linear_175_220)"/>
<path d="M401.27 185.186H404.21V186.243H396.59V185.186H399.99V173.978L396.75 175.912L396.19 175.015L400.19 172.542H401.27V185.186Z" fill="url(#paint19_linear_175_220)"/>
<path d="M400.07 195.135C401.497 195.135 402.577 195.74 403.31 196.95C404.057 198.147 404.43 199.888 404.43 202.175C404.43 204.462 404.057 206.211 403.31 207.421C402.577 208.63 401.497 209.235 400.07 209.235C398.657 209.235 397.577 208.63 396.83 207.421C396.084 206.211 395.71 204.462 395.71 202.175C395.71 199.902 396.084 198.16 396.83 196.95C397.577 195.74 398.657 195.135 400.07 195.135ZM397.13 202.175C397.13 203.797 397.277 205.067 397.57 205.985L402.01 197.15C401.543 196.525 400.897 196.212 400.07 196.212C399.15 196.212 398.43 196.704 397.91 197.688C397.39 198.659 397.13 200.154 397.13 202.175ZM400.07 208.139C401.003 208.139 401.73 207.653 402.25 206.683C402.77 205.699 403.03 204.196 403.03 202.175C403.03 200.46 402.863 199.131 402.53 198.187L398.09 207.101C398.57 207.793 399.23 208.139 400.07 208.139Z" fill="url(#paint20_linear_175_220)"/>
<path d="M400.07 217.928C401.497 217.928 402.577 218.533 403.31 219.743C404.057 220.94 404.43 222.681 404.43 224.968C404.43 227.255 404.057 229.003 403.31 230.213C402.577 231.423 401.497 232.028 400.07 232.028C398.657 232.028 397.577 231.423 396.83 230.213C396.084 229.003 395.71 227.255 395.71 224.968C395.71 222.695 396.084 220.953 396.83 219.743C397.577 218.533 398.657 217.928 400.07 217.928ZM397.13 224.968C397.13 226.59 397.277 227.86 397.57 228.777L402.01 219.942C401.543 219.317 400.897 219.005 400.07 219.005C399.15 219.005 398.43 219.497 397.91 220.481C397.39 221.451 397.13 222.947 397.13 224.968ZM400.07 230.931C401.003 230.931 401.73 230.446 402.25 229.475C402.77 228.492 403.03 226.989 403.03 224.968C403.03 223.253 402.863 221.923 402.53 220.979L398.09 229.894C398.57 230.586 399.23 230.931 400.07 230.931Z" fill="url(#paint21_linear_175_220)"/>
<path d="M401.27 253.565H404.21V254.622H396.59V253.565H399.99V242.356L396.75 244.291L396.19 243.393L400.19 240.92H401.27V253.565Z" fill="url(#paint22_linear_175_220)"/>
<path d="M400.07 263.514C401.497 263.514 402.577 264.119 403.31 265.329C404.057 266.525 404.43 268.267 404.43 270.554C404.43 272.841 404.057 274.589 403.31 275.799C402.577 277.009 401.497 277.614 400.07 277.614C398.657 277.614 397.577 277.009 396.83 275.799C396.084 274.589 395.71 272.841 395.71 270.554C395.71 268.28 396.084 266.538 396.83 265.329C397.577 264.119 398.657 263.514 400.07 263.514ZM397.13 270.554C397.13 272.176 397.277 273.446 397.57 274.363L402.01 265.528C401.543 264.903 400.897 264.591 400.07 264.591C399.15 264.591 398.43 265.083 397.91 266.066C397.39 267.037 397.13 268.533 397.13 270.554ZM400.07 276.517C401.003 276.517 401.73 276.032 402.25 275.061C402.77 274.077 403.03 272.575 403.03 270.554C403.03 268.839 402.863 267.509 402.53 266.565L398.09 275.48C398.57 276.171 399.23 276.517 400.07 276.517Z" fill="url(#paint23_linear_175_220)"/>
<path d="M401.27 299.15H404.21V300.207H396.59V299.15H399.99V287.942L396.75 289.876L396.19 288.979L400.19 286.506H401.27V299.15Z" fill="url(#paint24_linear_175_220)"/>
<path d="M401.27 321.943H404.21V323H396.59V321.943H399.99V310.735L396.75 312.669L396.19 311.772L400.19 309.299H401.27V321.943Z" fill="url(#paint25_linear_175_220)"/>
<path d="M344.36 58.3784C345.786 58.3784 346.866 58.9834 347.599 60.1933C348.346 61.3899 348.719 63.1317 348.719 65.4185C348.719 67.7054 348.346 69.4538 347.599 70.6637C346.866 71.8736 345.786 72.4786 344.36 72.4786C342.946 72.4786 341.867 71.8736 341.12 70.6637C340.373 69.4538 340 67.7054 340 65.4185C340 63.145 340.373 61.4032 341.12 60.1933C341.867 58.9834 342.946 58.3784 344.36 58.3784ZM341.42 65.4185C341.42 67.0406 341.567 68.3104 341.86 69.2278L346.3 60.3927C345.833 59.7678 345.186 59.4554 344.36 59.4554C343.44 59.4554 342.72 59.9473 342.2 60.9312C341.68 61.9018 341.42 63.3976 341.42 65.4185ZM344.36 71.3817C345.293 71.3817 346.02 70.8964 346.54 69.9258C347.06 68.9419 347.319 67.4395 347.319 65.4185C347.319 63.7034 347.153 62.3738 346.82 61.4298L342.38 70.3446C342.86 71.036 343.52 71.3817 344.36 71.3817Z" fill="url(#paint26_linear_175_220)"/>
<path d="M344.36 81.1712C345.786 81.1712 346.866 81.7762 347.599 82.9861C348.346 84.1827 348.719 85.9245 348.719 88.2113C348.719 90.4982 348.346 92.2466 347.599 93.4565C346.866 94.6664 345.786 95.2714 344.36 95.2714C342.946 95.2714 341.867 94.6664 341.12 93.4565C340.373 92.2466 340 90.4982 340 88.2113C340 85.9378 340.373 84.196 341.12 82.9861C341.867 81.7762 342.946 81.1712 344.36 81.1712ZM341.42 88.2113C341.42 89.8334 341.567 91.1032 341.86 92.0206L346.3 83.1855C345.833 82.5606 345.186 82.2482 344.36 82.2482C343.44 82.2482 342.72 82.7401 342.2 83.724C341.68 84.6946 341.42 86.1904 341.42 88.2113ZM344.36 94.1745C345.293 94.1745 346.02 93.6892 346.54 92.7186C347.06 91.7347 347.319 90.2323 347.319 88.2113C347.319 86.4962 347.153 85.1666 346.82 84.2226L342.38 93.1374C342.86 93.8288 343.52 94.1745 344.36 94.1745Z" fill="url(#paint27_linear_175_220)"/>
<path d="M345.56 116.808H348.499V117.865H340.88V116.808H344.28V105.599L341.04 107.534L340.48 106.636L344.48 104.163H345.56V116.808Z" fill="url(#paint28_linear_175_220)"/>
<path d="M344.36 126.757C345.786 126.757 346.866 127.362 347.599 128.572C348.346 129.768 348.719 131.51 348.719 133.797C348.719 136.084 348.346 137.832 347.599 139.042C346.866 140.252 345.786 140.857 344.36 140.857C342.946 140.857 341.867 140.252 341.12 139.042C340.373 137.832 340 136.084 340 133.797C340 131.523 340.373 129.782 341.12 128.572C341.867 127.362 342.946 126.757 344.36 126.757ZM341.42 133.797C341.42 135.419 341.567 136.689 341.86 137.606L346.3 128.771C345.833 128.146 345.186 127.834 344.36 127.834C343.44 127.834 342.72 128.326 342.2 129.31C341.68 130.28 341.42 131.776 341.42 133.797ZM344.36 139.76C345.293 139.76 346.02 139.275 346.54 138.304C347.06 137.32 347.319 135.818 347.319 133.797C347.319 132.082 347.153 130.752 346.82 129.808L342.38 138.723C342.86 139.414 343.52 139.76 344.36 139.76Z" fill="url(#paint29_linear_175_220)"/>
<path d="M345.56 162.393H348.499V163.45H340.88V162.393H344.28V151.185L341.04 153.12L340.48 152.222L344.48 149.749H345.56V162.393Z" fill="url(#paint30_linear_175_220)"/>
<path d="M345.56 185.186H348.499V186.243H340.88V185.186H344.28V173.978L341.04 175.912L340.48 175.015L344.48 172.542H345.56V185.186Z" fill="url(#paint31_linear_175_220)"/>
<path d="M382.7 25.6365H385.64V26.6936H378.02V25.6365H381.42V14.4282L378.18 16.3627L377.62 15.4653L381.62 12.9922H382.7V25.6365Z" fill="url(#paint32_linear_175_220)"/>
<path d="M381.5 35.5856C382.927 35.5856 384.006 36.1906 384.74 37.4005C385.486 38.5971 385.86 40.3389 385.86 42.6257C385.86 44.9126 385.486 46.661 384.74 47.8709C384.006 49.0808 382.927 49.6858 381.5 49.6858C380.087 49.6858 379.007 49.0808 378.26 47.8709C377.514 46.661 377.14 44.9126 377.14 42.6257C377.14 40.3522 377.514 38.6104 378.26 37.4005C379.007 36.1906 380.087 35.5856 381.5 35.5856ZM378.56 42.6257C378.56 44.2478 378.707 45.5176 379 46.435L383.44 37.5999C382.973 36.975 382.327 36.6626 381.5 36.6626C380.58 36.6626 379.86 37.1545 379.34 38.1384C378.82 39.109 378.56 40.6048 378.56 42.6257ZM381.5 48.5889C382.433 48.5889 383.16 48.1036 383.68 47.133C384.2 46.1491 384.46 44.6467 384.46 42.6257C384.46 40.9106 384.293 39.581 383.96 38.637L379.52 47.5518C380 48.2432 380.66 48.5889 381.5 48.5889Z" fill="url(#paint33_linear_175_220)"/>
<path d="M382.7 71.2221H385.64V72.2792H378.02V71.2221H381.42V60.0138L378.18 61.9483L377.62 61.0509L381.62 58.5778H382.7V71.2221Z" fill="url(#paint34_linear_175_220)"/>
<path d="M382.7 94.015H385.64V95.072H378.02V94.015H381.42V82.8066L378.18 84.7411L377.62 83.8437L381.62 81.3706H382.7V94.015Z" fill="url(#paint35_linear_175_220)"/>
<path d="M381.5 103.964C382.927 103.964 384.006 104.569 384.74 105.779C385.486 106.976 385.86 108.717 385.86 111.004C385.86 113.291 385.486 115.039 384.74 116.249C384.006 117.459 382.927 118.064 381.5 118.064C380.087 118.064 379.007 117.459 378.26 116.249C377.514 115.039 377.14 113.291 377.14 111.004C377.14 108.731 377.514 106.989 378.26 105.779C379.007 104.569 380.087 103.964 381.5 103.964ZM378.56 111.004C378.56 112.626 378.707 113.896 379 114.813L383.44 105.978C382.973 105.353 382.327 105.041 381.5 105.041C380.58 105.041 379.86 105.533 379.34 106.517C378.82 107.487 378.56 108.983 378.56 111.004ZM381.5 116.967C382.433 116.967 383.16 116.482 383.68 115.511C384.2 114.528 384.46 113.025 384.46 111.004C384.46 109.289 384.293 107.959 383.96 107.015L379.52 115.93C380 116.622 380.66 116.967 381.5 116.967Z" fill="url(#paint36_linear_175_220)"/>
<path d="M382.7 139.601H385.64V140.658H378.02V139.601H381.42V128.392L378.18 130.327L377.62 129.429L381.62 126.956H382.7V139.601Z" fill="url(#paint37_linear_175_220)"/>
<path d="M382.7 162.393H385.64V163.45H378.02V162.393H381.42V151.185L378.18 153.12L377.62 152.222L381.62 149.749H382.7V162.393Z" fill="url(#paint38_linear_175_220)"/>
<path d="M381.5 172.342C382.927 172.342 384.006 172.947 384.74 174.157C385.486 175.354 385.86 177.096 385.86 179.383C385.86 181.669 385.486 183.418 384.74 184.628C384.006 185.838 382.927 186.443 381.5 186.443C380.087 186.443 379.007 185.838 378.26 184.628C377.514 183.418 377.14 181.669 377.14 179.383C377.14 177.109 377.514 175.367 378.26 174.157C379.007 172.947 380.087 172.342 381.5 172.342ZM378.56 179.383C378.56 181.005 378.707 182.274 379 183.192L383.44 174.357C382.973 173.732 382.327 173.419 381.5 173.419C380.58 173.419 379.86 173.911 379.34 174.895C378.82 175.866 378.56 177.362 378.56 179.383ZM381.5 185.346C382.433 185.346 383.16 184.86 383.68 183.89C384.2 182.906 384.46 181.404 384.46 179.383C384.46 177.667 384.293 176.338 383.96 175.394L379.52 184.309C380 185 380.66 185.346 381.5 185.346Z" fill="url(#paint39_linear_175_220)"/>
<path d="M382.7 207.979H385.64V209.036H378.02V207.979H381.42V196.771L378.18 198.705L377.62 197.808L381.62 195.335H382.7V207.979Z" fill="url(#paint40_linear_175_220)"/>
<path d="M381.5 217.928C382.927 217.928 384.006 218.533 384.74 219.743C385.486 220.94 385.86 222.681 385.86 224.968C385.86 227.255 385.486 229.003 384.74 230.213C384.006 231.423 382.927 232.028 381.5 232.028C380.087 232.028 379.007 231.423 378.26 230.213C377.514 229.003 377.14 227.255 377.14 224.968C377.14 222.695 377.514 220.953 378.26 219.743C379.007 218.533 380.087 217.928 381.5 217.928ZM378.56 224.968C378.56 226.59 378.707 227.86 379 228.777L383.44 219.942C382.973 219.317 382.327 219.005 381.5 219.005C380.58 219.005 379.86 219.497 379.34 220.481C378.82 221.451 378.56 222.947 378.56 224.968ZM381.5 230.931C382.433 230.931 383.16 230.446 383.68 229.475C384.2 228.492 384.46 226.989 384.46 224.968C384.46 223.253 384.293 221.923 383.96 220.979L379.52 229.894C380 230.586 380.66 230.931 381.5 230.931Z" fill="url(#paint41_linear_175_220)"/>
<path d="M418.64 12.7928C420.067 12.7928 421.147 13.3978 421.88 14.6077C422.627 15.8043 423 17.5461 423 19.8329C423 22.1198 422.627 23.8682 421.88 25.0781C421.147 26.288 420.067 26.893 418.64 26.893C417.227 26.893 416.147 26.288 415.401 25.0781C414.654 23.8682 414.281 22.1198 414.281 19.8329C414.281 17.5593 414.654 15.8176 415.401 14.6077C416.147 13.3978 417.227 12.7928 418.64 12.7928ZM415.7 19.8329C415.7 21.455 415.847 22.7248 416.14 23.6422L420.58 14.8071C420.114 14.1822 419.467 13.8698 418.64 13.8698C417.72 13.8698 417 14.3617 416.48 15.3456C415.96 16.3162 415.7 17.812 415.7 19.8329ZM418.64 25.7961C419.574 25.7961 420.3 25.3108 420.82 24.3402C421.34 23.3563 421.6 21.8539 421.6 19.8329C421.6 18.1178 421.433 16.7882 421.1 15.8442L416.66 24.759C417.14 25.4504 417.8 25.7961 418.64 25.7961Z" fill="url(#paint42_linear_175_220)"/>
<path d="M419.84 48.4293H422.78V49.4864H415.161V48.4293H418.56V37.221L415.321 39.1555L414.761 38.2581L418.76 35.785H419.84V48.4293Z" fill="url(#paint43_linear_175_220)"/>
<path d="M419.84 71.2221H422.78V72.2792H415.161V71.2221H418.56V60.0138L415.321 61.9483L414.761 61.0509L418.76 58.5778H419.84V71.2221Z" fill="url(#paint44_linear_175_220)"/>
<path d="M418.64 81.1712C420.067 81.1712 421.147 81.7762 421.88 82.9861C422.627 84.1827 423 85.9245 423 88.2113C423 90.4982 422.627 92.2466 421.88 93.4565C421.147 94.6664 420.067 95.2714 418.64 95.2714C417.227 95.2714 416.147 94.6664 415.401 93.4565C414.654 92.2466 414.281 90.4982 414.281 88.2113C414.281 85.9378 414.654 84.196 415.401 82.9861C416.147 81.7762 417.227 81.1712 418.64 81.1712ZM415.7 88.2113C415.7 89.8334 415.847 91.1032 416.14 92.0206L420.58 83.1855C420.114 82.5606 419.467 82.2482 418.64 82.2482C417.72 82.2482 417 82.7401 416.48 83.724C415.96 84.6946 415.7 86.1904 415.7 88.2113ZM418.64 94.1745C419.574 94.1745 420.3 93.6892 420.82 92.7186C421.34 91.7347 421.6 90.2323 421.6 88.2113C421.6 86.4962 421.433 85.1666 421.1 84.2226L416.66 93.1374C417.14 93.8288 417.8 94.1745 418.64 94.1745Z" fill="url(#paint45_linear_175_220)"/>
<path d="M418.64 103.964C420.067 103.964 421.147 104.569 421.88 105.779C422.627 106.976 423 108.717 423 111.004C423 113.291 422.627 115.039 421.88 116.249C421.147 117.459 420.067 118.064 418.64 118.064C417.227 118.064 416.147 117.459 415.401 116.249C414.654 115.039 414.281 113.291 414.281 111.004C414.281 108.731 414.654 106.989 415.401 105.779C416.147 104.569 417.227 103.964 418.64 103.964ZM415.7 111.004C415.7 112.626 415.847 113.896 416.14 114.813L420.58 105.978C420.114 105.353 419.467 105.041 418.64 105.041C417.72 105.041 417 105.533 416.48 106.517C415.96 107.487 415.7 108.983 415.7 111.004ZM418.64 116.967C419.574 116.967 420.3 116.482 420.82 115.511C421.34 114.528 421.6 113.025 421.6 111.004C421.6 109.289 421.433 107.959 421.1 107.015L416.66 115.93C417.14 116.622 417.8 116.967 418.64 116.967Z" fill="url(#paint46_linear_175_220)"/>
</g>
<defs>
<filter id="filter0_f_175_220" x="-1115.19" y="-696.19" width="2141.38" height="1500.38" filterUnits="userSpaceOnUse" color-interpolation-filters="sRGB">
<feFlood flood-opacity="0" result="BackgroundImageFix"/>
<feBlend mode="normal" in="SourceGraphic" in2="BackgroundImageFix" result="shape"/>
<feGaussianBlur stdDeviation="200.095" result="effect1_foregroundBlur_175_220"/>
</filter>
<linearGradient id="paint0_linear_175_220" x1="381.5" y1="-10" x2="381.5" y2="288.818" gradientUnits="userSpaceOnUse">
<stop stop-color="#F7DD43"/>
<stop offset="1" stop-color="#F7DD43" stop-opacity="0"/>
</linearGradient>
<linearGradient id="paint1_linear_175_220" x1="381.5" y1="-10" x2="381.5" y2="288.818" gradientUnits="userSpaceOnUse">
<stop stop-color="#F7DD43"/>
<stop offset="1" stop-color="#F7DD43" stop-opacity="0"/>
</linearGradient>
<linearGradient id="paint2_linear_175_220" x1="381.5" y1="-10" x2="381.5" y2="288.818" gradientUnits="userSpaceOnUse">
<stop stop-color="#F7DD43"/>
<stop offset="1" stop-color="#F7DD43" stop-opacity="0"/>
</linearGradient>
<linearGradient id="paint3_linear_175_220" x1="381.5" y1="-10" x2="381.5" y2="288.818" gradientUnits="userSpaceOnUse">
<stop stop-color="#F7DD43"/>
<stop offset="1" stop-color="#F7DD43" stop-opacity="0"/>
</linearGradient>
<linearGradient id="paint4_linear_175_220" x1="381.5" y1="-10" x2="381.5" y2="288.818" gradientUnits="userSpaceOnUse">
<stop stop-color="#F7DD43"/>
<stop offset="1" stop-color="#F7DD43" stop-opacity="0"/>
</linearGradient>
<linearGradient id="paint5_linear_175_220" x1="381.5" y1="-10" x2="381.5" y2="288.818" gradientUnits="userSpaceOnUse">
<stop stop-color="#F7DD43"/>
<stop offset="1" stop-color="#F7DD43" stop-opacity="0"/>
</linearGradient>
<linearGradient id="paint6_linear_175_220" x1="381.5" y1="-10" x2="381.5" y2="288.818" gradientUnits="userSpaceOnUse">
<stop stop-color="#F7DD43"/>
<stop offset="1" stop-color="#F7DD43" stop-opacity="0"/>
</linearGradient>
<linearGradient id="paint7_linear_175_220" x1="381.5" y1="-10" x2="381.5" y2="288.818" gradientUnits="userSpaceOnUse">
<stop stop-color="#F7DD43"/>
<stop offset="1" stop-color="#F7DD43" stop-opacity="0"/>
</linearGradient>
<linearGradient id="paint8_linear_175_220" x1="381.5" y1="-10" x2="381.5" y2="288.818" gradientUnits="userSpaceOnUse">
<stop stop-color="#F7DD43"/>
<stop offset="1" stop-color="#F7DD43" stop-opacity="0"/>
</linearGradient>
<linearGradient id="paint9_linear_175_220" x1="381.5" y1="-10" x2="381.5" y2="288.818" gradientUnits="userSpaceOnUse">
<stop stop-color="#F7DD43"/>
<stop offset="1" stop-color="#F7DD43" stop-opacity="0"/>
</linearGradient>
<linearGradient id="paint10_linear_175_220" x1="381.5" y1="-10" x2="381.5" y2="288.818" gradientUnits="userSpaceOnUse">
<stop stop-color="#F7DD43"/>
<stop offset="1" stop-color="#F7DD43" stop-opacity="0"/>
</linearGradient>
<linearGradient id="paint11_linear_175_220" x1="381.5" y1="-10" x2="381.5" y2="288.818" gradientUnits="userSpaceOnUse">
<stop stop-color="#F7DD43"/>
<stop offset="1" stop-color="#F7DD43" stop-opacity="0"/>
</linearGradient>
<linearGradient id="paint12_linear_175_220" x1="381.5" y1="-10" x2="381.5" y2="288.818" gradientUnits="userSpaceOnUse">
<stop stop-color="#F7DD43"/>
<stop offset="1" stop-color="#F7DD43" stop-opacity="0"/>
</linearGradient>
<linearGradient id="paint13_linear_175_220" x1="381.5" y1="-10" x2="381.5" y2="288.818" gradientUnits="userSpaceOnUse">
<stop stop-color="#F7DD43"/>
<stop offset="1" stop-color="#F7DD43" stop-opacity="0"/>
</linearGradient>
<linearGradient id="paint14_linear_175_220" x1="381.5" y1="-10" x2="381.5" y2="288.818" gradientUnits="userSpaceOnUse">
<stop stop-color="#F7DD43"/>
<stop offset="1" stop-color="#F7DD43" stop-opacity="0"/>
</linearGradient>
<linearGradient id="paint15_linear_175_220" x1="381.5" y1="-10" x2="381.5" y2="288.818" gradientUnits="userSpaceOnUse">
<stop stop-color="#F7DD43"/>
<stop offset="1" stop-color="#F7DD43" stop-opacity="0"/>
</linearGradient>
<linearGradient id="paint16_linear_175_220" x1="381.5" y1="-10" x2="381.5" y2="288.818" gradientUnits="userSpaceOnUse">
<stop stop-color="#F7DD43"/>
<stop offset="1" stop-color="#F7DD43" stop-opacity="0"/>
</linearGradient>
<linearGradient id="paint17_linear_175_220" x1="381.5" y1="-10" x2="381.5" y2="288.818" gradientUnits="userSpaceOnUse">
<stop stop-color="#F7DD43"/>
<stop offset="1" stop-color="#F7DD43" stop-opacity="0"/>
</linearGradient>
<linearGradient id="paint18_linear_175_220" x1="381.5" y1="-10" x2="381.5" y2="288.818" gradientUnits="userSpaceOnUse">
<stop stop-color="#F7DD43"/>
<stop offset="1" stop-color="#F7DD43" stop-opacity="0"/>
</linearGradient>
<linearGradient id="paint19_linear_175_220" x1="381.5" y1="-10" x2="381.5" y2="288.818" gradientUnits="userSpaceOnUse">
<stop stop-color="#F7DD43"/>
<stop offset="1" stop-color="#F7DD43" stop-opacity="0"/>
</linearGradient>
<linearGradient id="paint20_linear_175_220" x1="381.5" y1="-10" x2="381.5" y2="288.818" gradientUnits="userSpaceOnUse">
<stop stop-color="#F7DD43"/>
<stop offset="1" stop-color="#F7DD43" stop-opacity="0"/>
</linearGradient>
<linearGradient id="paint21_linear_175_220" x1="381.5" y1="-10" x2="381.5" y2="288.818" gradientUnits="userSpaceOnUse">
<stop stop-color="#F7DD43"/>
<stop offset="1" stop-color="#F7DD43" stop-opacity="0"/>
</linearGradient>
<linearGradient id="paint22_linear_175_220" x1="381.5" y1="-10" x2="381.5" y2="288.818" gradientUnits="userSpaceOnUse">
<stop stop-color="#F7DD43"/>
<stop offset="1" stop-color="#F7DD43" stop-opacity="0"/>
</linearGradient>
<linearGradient id="paint23_linear_175_220" x1="381.5" y1="-10" x2="381.5" y2="288.818" gradientUnits="userSpaceOnUse">
<stop stop-color="#F7DD43"/>
<stop offset="1" stop-color="#F7DD43" stop-opacity="0"/>
</linearGradient>
<linearGradient id="paint24_linear_175_220" x1="381.5" y1="-10" x2="381.5" y2="288.818" gradientUnits="userSpaceOnUse">
<stop stop-color="#F7DD43"/>
<stop offset="1" stop-color="#F7DD43" stop-opacity="0"/>
</linearGradient>
<linearGradient id="paint25_linear_175_220" x1="381.5" y1="-10" x2="381.5" y2="288.818" gradientUnits="userSpaceOnUse">
<stop stop-color="#F7DD43"/>
<stop offset="1" stop-color="#F7DD43" stop-opacity="0"/>
</linearGradient>
<linearGradient id="paint26_linear_175_220" x1="381.5" y1="-10" x2="381.5" y2="288.818" gradientUnits="userSpaceOnUse">
<stop stop-color="#F7DD43"/>
<stop offset="1" stop-color="#F7DD43" stop-opacity="0"/>
</linearGradient>
<linearGradient id="paint27_linear_175_220" x1="381.5" y1="-10" x2="381.5" y2="288.818" gradientUnits="userSpaceOnUse">
<stop stop-color="#F7DD43"/>
<stop offset="1" stop-color="#F7DD43" stop-opacity="0"/>
</linearGradient>
<linearGradient id="paint28_linear_175_220" x1="381.5" y1="-10" x2="381.5" y2="288.818" gradientUnits="userSpaceOnUse">
<stop stop-color="#F7DD43"/>
<stop offset="1" stop-color="#F7DD43" stop-opacity="0"/>
</linearGradient>
<linearGradient id="paint29_linear_175_220" x1="381.5" y1="-10" x2="381.5" y2="288.818" gradientUnits="userSpaceOnUse">
<stop stop-color="#F7DD43"/>
<stop offset="1" stop-color="#F7DD43" stop-opacity="0"/>
</linearGradient>
<linearGradient id="paint30_linear_175_220" x1="381.5" y1="-10" x2="381.5" y2="288.818" gradientUnits="userSpaceOnUse">
<stop stop-color="#F7DD43"/>
<stop offset="1" stop-color="#F7DD43" stop-opacity="0"/>
</linearGradient>
<linearGradient id="paint31_linear_175_220" x1="381.5" y1="-10" x2="381.5" y2="288.818" gradientUnits="userSpaceOnUse">
<stop stop-color="#F7DD43"/>
<stop offset="1" stop-color="#F7DD43" stop-opacity="0"/>
</linearGradient>
<linearGradient id="paint32_linear_175_220" x1="381.5" y1="-10" x2="381.5" y2="288.818" gradientUnits="userSpaceOnUse">
<stop stop-color="#F7DD43"/>
<stop offset="1" stop-color="#F7DD43" stop-opacity="0"/>
</linearGradient>
<linearGradient id="paint33_linear_175_220" x1="381.5" y1="-10" x2="381.5" y2="288.818" gradientUnits="userSpaceOnUse">
<stop stop-color="#F7DD43"/>
<stop offset="1" stop-color="#F7DD43" stop-opacity="0"/>
</linearGradient>
<linearGradient id="paint34_linear_175_220" x1="381.5" y1="-10" x2="381.5" y2="288.818" gradientUnits="userSpaceOnUse">
<stop stop-color="#F7DD43"/>
<stop offset="1" stop-color="#F7DD43" stop-opacity="0"/>
</linearGradient>
<linearGradient id="paint35_linear_175_220" x1="381.5" y1="-10" x2="381.5" y2="288.818" gradientUnits="userSpaceOnUse">
<stop stop-color="#F7DD43"/>
<stop offset="1" stop-color="#F7DD43" stop-opacity="0"/>
</linearGradient>
<linearGradient id="paint36_linear_175_220" x1="381.5" y1="-10" x2="381.5" y2="288.818" gradientUnits="userSpaceOnUse">
<stop stop-color="#F7DD43"/>
<stop offset="1" stop-color="#F7DD43" stop-opacity="0"/>
</linearGradient>
<linearGradient id="paint37_linear_175_220" x1="381.5" y1="-10" x2="381.5" y2="288.818" gradientUnits="userSpaceOnUse">
<stop stop-color="#F7DD43"/>
<stop offset="1" stop-color="#F7DD43" stop-opacity="0"/>
</linearGradient>
<linearGradient id="paint38_linear_175_220" x1="381.5" y1="-10" x2="381.5" y2="288.818" gradientUnits="userSpaceOnUse">
<stop stop-color="#F7DD43"/>
<stop offset="1" stop-color="#F7DD43" stop-opacity="0"/>
</linearGradient>
<linearGradient id="paint39_linear_175_220" x1="381.5" y1="-10" x2="381.5" y2="288.818" gradientUnits="userSpaceOnUse">
<stop stop-color="#F7DD43"/>
<stop offset="1" stop-color="#F7DD43" stop-opacity="0"/>
</linearGradient>
<linearGradient id="paint40_linear_175_220" x1="381.5" y1="-10" x2="381.5" y2="288.818" gradientUnits="userSpaceOnUse">
<stop stop-color="#F7DD43"/>
<stop offset="1" stop-color="#F7DD43" stop-opacity="0"/>
</linearGradient>
<linearGradient id="paint41_linear_175_220" x1="381.5" y1="-10" x2="381.5" y2="288.818" gradientUnits="userSpaceOnUse">
<stop stop-color="#F7DD43"/>
<stop offset="1" stop-color="#F7DD43" stop-opacity="0"/>
</linearGradient>
<linearGradient id="paint42_linear_175_220" x1="381.5" y1="-10" x2="381.5" y2="288.818" gradientUnits="userSpaceOnUse">
<stop stop-color="#F7DD43"/>
<stop offset="1" stop-color="#F7DD43" stop-opacity="0"/>
</linearGradient>
<linearGradient id="paint43_linear_175_220" x1="381.5" y1="-10" x2="381.5" y2="288.818" gradientUnits="userSpaceOnUse">
<stop stop-color="#F7DD43"/>
<stop offset="1" stop-color="#F7DD43" stop-opacity="0"/>
</linearGradient>
<linearGradient id="paint44_linear_175_220" x1="381.5" y1="-10" x2="381.5" y2="288.818" gradientUnits="userSpaceOnUse">
<stop stop-color="#F7DD43"/>
<stop offset="1" stop-color="#F7DD43" stop-opacity="0"/>
</linearGradient>
<linearGradient id="paint45_linear_175_220" x1="381.5" y1="-10" x2="381.5" y2="288.818" gradientUnits="userSpaceOnUse">
<stop stop-color="#F7DD43"/>
<stop offset="1" stop-color="#F7DD43" stop-opacity="0"/>
</linearGradient>
<linearGradient id="paint46_linear_175_220" x1="381.5" y1="-10" x2="381.5" y2="288.818" gradientUnits="userSpaceOnUse">
<stop stop-color="#F7DD43"/>
<stop offset="1" stop-color="#F7DD43" stop-opacity="0"/>
</linearGradient>
</defs>
</svg>
